<svg width="61" height="57" viewBox="0 0 61 57" fill="none" xmlns="http://www.w3.org/2000/svg">
<path fill-rule="evenodd" clip-rule="evenodd" d="M51.0322 6.94042C52.5346 6.94042 53.7524 5.72254 53.7524 4.22021C53.7524 2.71788 52.5346 1.5 51.0322 1.5C49.5299 1.5 48.312 2.71788 48.312 4.22021C48.312 5.72254 49.5299 6.94042 51.0322 6.94042Z" stroke="white" stroke-width="1.07731" stroke-linecap="round" stroke-linejoin="round"/>
<path fill-rule="evenodd" clip-rule="evenodd" d="M53.0521 39.5739C57.0285 39.5739 60.2521 36.3503 60.2521 32.3739C60.2521 28.3974 57.0285 25.1738 53.0521 25.1738C49.0756 25.1738 45.8521 28.3974 45.8521 32.3739C45.8521 36.3503 49.0756 39.5739 53.0521 39.5739Z" stroke="white" stroke-width="1.07731" stroke-linecap="round" stroke-linejoin="round"/>
<path fill-rule="evenodd" clip-rule="evenodd" d="M20.5533 56.2999C22.2887 56.2999 23.6954 54.8931 23.6954 53.1578C23.6954 51.4224 22.2887 50.0156 20.5533 50.0156C18.8179 50.0156 17.4111 51.4224 17.4111 53.1578C17.4111 54.8931 18.8179 56.2999 20.5533 56.2999Z" stroke="white" stroke-width="1.07731" stroke-linecap="round" stroke-linejoin="round"/>
<path fill-rule="evenodd" clip-rule="evenodd" d="M8.19214 51.2183C11.653 51.2183 14.4585 48.4127 14.4585 44.9519C14.4585 41.4911 11.653 38.6855 8.19214 38.6855C4.73133 38.6855 1.92578 41.4911 1.92578 44.9519C1.92578 48.4127 4.73133 51.2183 8.19214 51.2183Z" stroke="white" stroke-width="1.07731" stroke-linecap="round" stroke-linejoin="round"/>
<path fill-rule="evenodd" clip-rule="evenodd" d="M4.84241 11.4387C6.96451 11.4387 8.68482 9.71842 8.68482 7.59632C8.68482 5.47421 6.96451 3.75391 4.84241 3.75391C2.72031 3.75391 1 5.47421 1 7.59632C1 9.71842 2.72031 11.4387 4.84241 11.4387Z" stroke="white" stroke-width="1.07731" stroke-linecap="round" stroke-linejoin="round"/>
<path d="M55.0809 24.4007C54.8474 23.3593 54.201 22.4256 53.2943 21.86C52.603 21.4201 51.831 21.2585 51.1936 21.4022C50.3766 21.5907 49.9098 22.1114 49.4878 22.5693C49.0748 23.0181 48.7427 23.3952 48.1053 23.4939C46.9202 19.5079 44.4065 16.0515 40.9591 13.6814C41.1925 12.8824 41.6504 12.6221 42.1711 12.3168C42.5661 12.0924 42.9701 11.859 43.2215 11.4011C43.5267 10.8625 43.5626 10.1892 43.3202 9.50686C42.9521 8.45648 42.0185 7.5677 40.7616 7.06495C39.4688 6.54425 38.0863 6.47243 37.1616 6.86744C36.6409 7.09188 36.2728 7.45997 36.0843 7.9268C35.806 8.63603 35.9047 9.37219 35.9945 10.0724C36.0573 10.5123 36.1112 10.9253 36.0663 11.3024C34.3247 10.7637 32.5112 10.4854 30.6618 10.4854C28.8932 10.4854 27.1516 10.7368 25.4728 11.2395C24.5929 10.656 24.6827 10.1712 24.7994 9.50686C24.8802 9.05798 24.97 8.55523 24.7186 8.05249C24.0812 6.76869 22.1062 6.05048 19.9156 7.05597C18.8652 7.54076 18.0662 8.33079 17.743 9.22855C17.5096 9.85698 17.5276 10.5123 17.7879 11.069C18.1291 11.7961 18.7216 12.2001 19.2513 12.5592C19.8618 12.9722 20.2119 13.2415 20.2837 13.7443C18.0393 15.3064 16.163 17.3712 14.8253 19.7503C14.7984 19.7413 14.7715 19.7323 14.7445 19.7234C14.0353 19.5169 13.1465 19.6426 12.3744 20.0555C11.737 20.3967 10.8842 21.079 10.4532 22.4166C10.13 23.4401 10.2198 24.4815 10.7046 25.2805C11.0907 25.9089 11.6921 26.3309 12.3655 26.4476C12.4373 26.4566 12.5091 26.4655 12.5899 26.4745C12.5091 27.1568 12.4732 27.875 12.4732 28.674C12.4732 31.3673 13.0478 33.9528 14.1789 36.3678C13.6762 36.6102 13.1286 36.6012 12.545 36.5923C11.9525 36.5833 11.342 36.5743 10.8034 36.8706C10.1839 37.2117 9.7081 37.912 9.52855 38.7379C9.29513 39.8062 9.55548 40.9374 10.2737 41.907C11.0278 42.9394 12.168 43.6756 13.2363 43.8372C13.8827 43.9359 14.4572 43.8102 14.8972 43.487C15.5974 42.9663 15.9116 42.1763 16.1809 41.485C16.3874 40.9733 16.54 40.6052 16.7465 40.4077C20.2119 44.5195 25.2573 46.8716 30.6528 46.8716C31.2723 46.8716 31.8917 46.8447 32.5022 46.7818C32.4932 46.8447 32.4843 46.8985 32.4753 46.9614C32.4124 47.4372 32.3496 47.895 32.4663 48.3529C32.601 48.8826 32.987 49.3225 33.5795 49.6277C34.1182 49.897 34.7646 50.0407 35.4469 50.0407C36.1381 50.0407 36.8743 49.906 37.5656 49.6277C38.589 49.2147 39.397 48.4696 39.783 47.5629C40.0703 46.8895 40.0973 46.1803 39.8549 45.5788C39.7022 45.2107 39.4778 44.9235 39.2264 44.6811C41.9466 43.2177 44.2539 41.09 45.9327 38.4955C47.818 35.5957 48.8145 32.2381 48.8324 28.7728C49.8469 28.297 50.6639 28.4675 51.4539 28.6291C51.9028 28.7189 52.3337 28.8087 52.7646 28.7728C53.42 28.7099 54.0574 28.3239 54.5063 27.7134C55.1616 26.8426 55.3592 25.6396 55.0809 24.4007Z" fill="#FF7BA6"/>
<path d="M32.082 21.9138C31.5703 20.8993 31.5792 19.804 32.1987 19.0858C33.1234 18.0085 35.0536 18.1611 36.5169 19.418C37.9803 20.6749 38.4202 22.5691 37.5045 23.6375C36.9119 24.3288 35.8885 24.5173 34.8561 24.221" stroke="white" stroke-width="1.07731" stroke-linecap="round" stroke-linejoin="round"/>
<path d="M26.9812 30.416C28.6779 30.416 30.0605 31.7896 30.0605 33.4953C30.0605 35.2011 28.6869 36.5746 26.9812 36.5746C25.2844 36.5746 23.9019 35.2011 23.9019 33.4953C23.9019 32.9028 24.0724 32.3462 24.3687 31.8704" stroke="white" stroke-width="1.07731" stroke-linecap="round" stroke-linejoin="round"/>
<path d="M38.5333 30.1211C39.9697 30.8483 41.4151 30.4443 42.1692 31.2523C43.058 32.2039 43.1029 33.5595 41.8819 34.9062C40.661 36.2528 38.9642 36.558 37.9228 35.768C36.6659 34.8164 37.1058 33.3261 37.1058 33.3261" stroke="white" stroke-width="1.07731" stroke-linecap="round" stroke-linejoin="round"/>
<path d="M35.9062 12.7043C37.3965 11.4115 36.023 9.55317 36.5885 8.11676C37.0284 7.00353 38.8958 6.88683 40.5656 7.56014C42.5676 8.35915 43.3307 10.1098 42.7562 11.1332C42.2085 12.1028 40.4758 11.8155 40.2873 14.4549" stroke="white" stroke-width="1.07731" stroke-linecap="round" stroke-linejoin="round"/>
<path d="M17.2225 26.4758C15.382 24.824 14.0354 26.1885 12.4554 25.9282C11.2793 25.7307 10.4174 24.3122 10.9651 22.5975C11.6204 20.5506 13.5237 19.9491 14.592 20.2544C15.6604 20.5596 15.7142 22.3731 18.1112 21.619" stroke="white" stroke-width="1.07731" stroke-linecap="round" stroke-linejoin="round"/>
<path d="M36.5241 42.3652C36.6139 44.2954 38.8044 44.3403 39.3879 45.7677C39.8368 46.872 39.0737 48.4431 37.3949 49.1074C35.3929 49.9064 33.3011 49.3498 33.0049 48.2096C32.7266 47.1323 33.759 45.7498 32.3315 43.7298" stroke="white" stroke-width="1.07731" stroke-linecap="round" stroke-linejoin="round"/>
</svg>
